<?xml version="1.0" encoding="UTF-8" standalone="no"?>
<svg xmlns:rdf="http://www.w3.org/1999/02/22-rdf-syntax-ns#" xmlns="http://www.w3.org/2000/svg" height="236pt" width="244pt" version="1.1" xmlns:cc="http://creativecommons.org/ns#" xmlns:dc="http://purl.org/dc/elements/1.1/" viewBox="0 0 244 236">
 <g style="">
  <path d="m242.61 123.62c-1.2031-3.6289-2.5938-7.0273-4.4961-10.418-4.6914-8.375-9.625-16.309-14.836-23.895-1.0117-1.4766-2.4883-3.0898-3.2852-4.5312-0.78125-1.4219-1.0664-3.4414-1.2461-5.3242-0.19141-2.0391 0.0547-4.332-0.33984-6.3398-0.46485-2.3945-2.4453-4.0391-3.8477-5.8906-2.4492-3.2344-4.8398-6.8125-7.0742-10.25-0.38672-1.3398 0.0937-5.9336 0.0742-7.1445-0.0703-3.832-1.7969-7.207-3.2852-8.9258-1.2812-1.4766-7.1602-8.6641-13.34-11.055-7.5859-4.1406-20.168-9.832-42.078-12.668-7.8242-1.7031-16.668-2.8086-26.254-2.6406-6.0039-0.07812-11.707 0.35156-17.055 1.1016-24.913 2.571-37.909 8.907-46.132 12.989-4.48 2.051-13.23 8.637-14.637 11.074-1.4961 2.5898-3.2188 5.043-3.2852 8.832-0.01953 1.2148 0.41016 2.5391 0.22656 3.8516-0.10938 0.76953-1.4688 1.5195-2.1523 2.1523-5.675 5.238-9.195 13.027-8.265 23.668-7.84 10.156-19.336 20.453-25.645 32.393-1.91 3.62-4.6912 8.71-5.66 12.79v2.61c0.80078 6.9531 7.5664 9.2695 12.348 13.25 3.5234 2.9414 9.6133 6.2305 11.934 10.305 0.69531 1.2148 1.6211 3.5781 2.3789 4.0781 1.5391 1.0117 4.5938 0.33594 6.3438 0.67969 1.0352 0.20312 1.3984 1.1602 2.6055 1.9258 0.95312 0.60938 2.2422 1.1602 3.168 1.4727 0.89062 0.30078 7.0938 2.0547 7.4766 0.45312 0.22656-0.94922-0.63281-0.92969-1.3594-1.4726-2.2383-1.668-3.0352-4.8633-4.3008-7.0234 2.8945-1.9024 7.4414-3.7305 11.32-4.9805 1.3828-0.44531 3.0898-1.3008 4.1914-1.2461 1.5859 0.0781 3.4922 2.0547 4.3047 2.9453-1.8164 4.4023-2.5 11.551-1.3594 17.211-0.30859 0.65234-1.0312 1.0586-1.5859 1.5859-0.59766 0.57032-1.168 1.1758-1.6953 1.8125-1.1094 1.332-1.6562 2.9922-2.832 4.1914-0.85547-1.2266-1.3359-2.7266-1.9258-4.5312-0.35547-1.0859-0.76953-4.6016-1.8164-4.7539-0.93359-0.14062-1.4727 1.3398-1.8086 2.1484-1.2109 2.9219-2.0352 6.5039-1.6992 10.195-3.4219-0.61718-3.9922 2.3828-4.3008 4.9844-0.71094 5.8945-0.39844 12.547 1.9219 16.191 1.5312 2.4102 4.1953 4.4844 7.0117 5.9062 1.0898 0.54688 8.168 1.7734 11.863 4.0859 16.844 10.527 35.609 15.219 53.422 16.328v0.10937c26.867 1.3477 51.34-5.3906 63.418-12.484 5.4258-3.1875 12.184-6.3477 13.707-7.8711 1.9375-1.9336 3.8359-4.7344 5.418-6.7461 2.0352-2.5781 6.3359-4.4648 5.8789-9.1797-0.21093-2.1523-1.4141-4.0117-2.2656-5.8906 1.8945-3.1094 1.082-9.1406-0.11328-12.457-0.375-1.0547-0.82032-3.1172-1.9219-3.0586-1.0859 0.0586-1.7969 4.0547-2.1562 5.0977-0.71875 2.125-1.3047 3.5547-2.1445 5.2109-6.6797-4.8516-10.68-12.945-10.195-24.578 2.4648-1.1094 6.1211-1.8125 9.9648-1.8125 3.6953 0 7.6875 0.16016 9.625 2.1523-1.125 2.6719-2.5234 5.0195-4.6406 6.9102-0.64453 0.57422-2.0508 1.168-1.7031 2.0352 0.40625 0.99218 2.5703 0.41406 3.7422 0.23047 4.2148-0.66797 7.6758-1.7656 10.305-3.625 6.6016 1.375 8.9062-3.2734 12.004-6.1172 2.8516-2.6172 5.8867-5.0469 8.3789-7.1367 2.8086-2.3438 5.9023-4.7227 8.2695-7.2461 2.8477-3.0352 2.9766-7.0352 1.4375-11.664" fill="#fff"/>
  <g fill-opacity=".94118" fill="#766a6f" fill-rule="evenodd">
   <path d="m53.402 124.03c-4.7422 2.8672-10.172 4.8828-15.176 7.8164-3.5742 2.0938-6.9531 4.2852-10.082 7.1328-0.11328 0.10547-2.9141 2.8359-3.5039 0.79297-0.3125-1.0703 1.4141-2.4609 2.2617-3.1719 4.8789-4.0664 10.742-7.5352 17.102-10.078 2.9062-1.1641 6.0703-2.5078 9.3984-2.4922"/>
   <path d="m53.629 127.77c-0.79297 1.0117-2.0781 1.4922-3.168 2.0391-6.832 3.4336-13.895 6.8672-19.141 12.117-0.80859 0.80859-1.9609 2.0703-3.3984 1.3555-0.53125-1.3555 0.78125-2.3555 1.5859-3.0547 4.543-3.9648 9.5703-7.1445 15.629-9.8555 2.7344-1.2188 5.3477-2.3242 8.4922-2.6016"/>
   <path d="m52.387 132.52c0.97266 0.082 0.02344 0.5664-0.57031 0.91015-3.6602 2.1133-7.3789 3.6562-10.871 5.7734-2.8945 1.7578-5.6211 3.7461-8.1523 6.2305-0.37109 0.35937-2.2734 2.1562-2.9453 0.90234-0.72656-1.3476 3.3203-4.0859 4.1875-4.7539 3.5234-2.6953 7.0156-4.8594 11.328-6.793 2.0312-0.91406 4.4453-2.1094 6.793-2.2695 0.07422-0.004 0.15625-0.004 0.23047 0"/>
   <path d="m22.539 116.81c-1.6133 1.2578-7.1328 2.4219-10.125 1.9258-0.10547-0.51172 0.23047-1.0352 0.45313-1.4726 3.832-7.625 11.578-15.523 16.582-22.086-0.0039-0.03906 0.0039-0.07422 0-0.10938 0.08984 0.94922-1.4844 3.5117-2.0391 4.8672-2.0977 5.1562-4.2344 10.816-4.8711 16.875"/>
  </g>
  <g fill="#fff">
   <path d="m63.922 202.4c0.03906-0.004 0.09766 0.004 0.14453 0.004-0.0039-0.004-0.01172-0.004-0.01563-0.008-0.04687 0.004-0.08594 0-0.12891 0.004"/>
   <path d="m75.586 199.4c0.04297-0.004 0.10156 0.004 0.14844 0.004-0.0078-0.004-0.01172-0.004-0.01953-0.008-0.04297 0.004-0.08594 0-0.12891 0.004"/>
   <path d="m82.254 196.4c0.03906-0.004 0.10156 0.004 0.14453 0.004-0.0039-0.004-0.01172-0.004-0.01563-0.008-0.04297 0.004-0.08594 0-0.12891 0.004"/>
  </g>
  <g fill-opacity=".94118" fill="#766a6f" fill-rule="evenodd">
   <path d="m222.38 99.496c1.25 1.5898 3.1289 3.1328 2.9414 5.7773-0.53906 0.60937-1.6133 0.48828-2.2656 0.34375-2.7852-0.61719-5.0274-3.2188-6.5664-5.0977 1.4766 0.35547 5.5312 1.4297 5.8906-1.0234"/>
   <path d="m179.34 131.66c1.3359-0.84765 3.043-0.41797 4.418-0.23047 9.8125 1.3789 18.828 5.1133 27.406 7.4766-0.0781-1.1211-1.6406-1.6328-2.6055-2.2656-4.9648-3.2656-10.543-6.2656-16.648-8.6055-2.4883-0.95703-5.1133-1.4023-7.6992-2.3789 0.8789-1.3438 2.8984-0.75391 4.1875-0.56641 7.125 1.0352 13.203 4.2148 18.348 7.3594 1.0664 0.65235 2.0742 1.3477 3.0586 2.043 0.96875 0.6836 1.8438 1.5898 2.9414 1.9219 0.16407-1.2812-1.2812-1.9531-2.0352-2.6055-5.0508-4.3594-10.141-9.0664-16.762-12.004-1-0.4414-2.1797-0.78906-2.832-1.6992 0.0586-0.39844 0.63281-0.42969 1.5859-0.33985 2.875 0.27344 5.9492 2.25 8.2695 3.625 6.0586 3.5938 11.168 8.2266 16.191 13.25 0.79688 0.79297 2.7617 2.3906 2.832 3.0586 0.14453 1.3086-2.7226 3.4453-4.0742 3.5117-1.3164 0.0664-3.1914-0.92187-4.6484-1.4726-8.707-3.3008-17.293-6.9062-27.293-8.7188-1.5195-0.27735-3.4024-0.17969-4.6406-1.3594"/>
   <path d="m190.78 80.926c-2.3594 1.1328-5.2188 1.9258-8.3789 1.6953-5.4414-0.38672-8.5391-4.2539-10.305-8.1484 0.86719 0.26172 1.4414 1.3086 2.2617 1.8086 1.5156 0.92578 4.0508 1.4727 6.5703 1.4727 9.8789 0 15.52-6.1875 25.027-5.5469 2.3477 0.15625 4.6484 1.1328 5.4375 3.168 0.75 1.9414 0.70704 4.1914 1.1328 6.1172 1.3594 6.1055 4.0938 10.02 7.3633 14.379-2.7266 0.9375-4.0469-1.1719-5.7774-2.2617-1.8633-1.1719-3.8281-1.6016-6.1172-2.2656-1.0274-2.332-2.2344-4.4805-4.0781-6-2.3516 1.4766-5.6523 3.4922-9.7344 4.0781-1.3008 0.18359-3.3281 0.29297-3.5156-0.79688-0.29687-1.7305 3.3516-2.7188 4.3047-3.3945 4.9336 0.51172 6.9648-3.7305 7.9297-7.9297-0.34375-0.44922-1.2227-0.35938-1.7031-0.67969-1.3672 2.7852-2.5976 5.7031-5.3164 7.1367-1.5664-1.832 1.1445-5.4062-0.57032-7.4766-0.96093 0.13281-1.7148 0.47656-2.4922 0.79688-0.0781 1.9453-0.375 4.5312 0.33593 6-0.74218-0.3125-1.5352-1.5586-2.375-2.1523"/>
   <path d="m221.36 107.77c1.6133 0.48046 5.2188 3.8008 7.25 1.8125 0.93359 0.69921 2.0976 2.9062 1.0195 4.1914-4.3242-0.42969-5.8477-3.668-8.2695-6.0039"/>
   <path d="m226.11 115.24c1.7891 0.63672 3.625 2.7734 6.4531 2.375-1.1289 3.6055-5.1758-1.3008-6.4531-2.375"/>
  </g>
  <g fill="#211e1e">
   <path d="m192.48 47.855c0.33203 1.0391 0.76172 2.0781 1.3555 2.9453-0.59375-0.86719-0.9375-1.9414-1.3555-2.9453"/>
   <path d="m188.78 137.57c-0.13672-0.0312-0.26953-0.0586-0.41016-0.0859 0.14063 0.0273 0.27735 0.0547 0.41016 0.0859"/>
   <path d="m190.35 137.96c-0.14844-0.0391-0.29297-0.082-0.44922-0.1211 0.15625 0.0391 0.30078 0.082 0.44922 0.1211"/>
   <path d="m189.58 137.76c-0.13671-0.0352-0.27343-0.0664-0.41796-0.10156 0.14453 0.0352 0.28125 0.0664 0.41796 0.10156"/>
   <path d="m191.23 138.23c-0.19922-0.0664-0.41406-0.13281-0.63281-0.19922 0.21875 0.0664 0.43359 0.13281 0.63281 0.19922"/>
   <path d="m187.95 137.39c-0.125-0.0234-0.2539-0.0469-0.38281-0.0703 0.12891 0.0234 0.25781 0.0469 0.38281 0.0703"/>
   <path d="m184.58 136.86c-0.043-0.004-0.0859-0.0117-0.125-0.0156 0.0391 0.004 0.082 0.0117 0.125 0.0156"/>
   <path d="m182.72 136.65c-0.0312-0.004-0.0586-0.004-0.0859-0.008 0.0273 0.004 0.0547 0.004 0.0859 0.008"/>
   <path d="m187.07 137.23c-0.0625-0.0117-0.12891-0.0195-0.19141-0.0312 0.0625 0.0117 0.12891 0.0195 0.19141 0.0312"/>
   <path d="m183.68 136.75c-0.0469-0.004-0.0977-0.008-0.14844-0.0156 0.0469 0.008 0.10157 0.0117 0.14844 0.0156"/>
   <path d="m171.3 134.38c0.0156 0.008 0.0273 0.0234 0.043 0.0312-0.0156-0.008-0.0273-0.0234-0.043-0.0312"/>
  </g>
  <g fill="#fff">
   <path d="m180.91 202.4c0.043 0 0.10547-0.008 0.14453-0.004-0.0391-0.004-0.082 0-0.125-0.004-0.008 0.004-0.0156 0.004-0.0195 0.008"/>
   <path d="m169.26 199.39c-0.004 0.004-0.0117 0.004-0.0195 0.008 0.0469 0 0.10547-0.008 0.14844-0.004-0.043-0.004-0.0859 0-0.12891-0.004"/>
   <path d="m162.59 196.39c-0.004 0.004-0.0117 0.004-0.0195 0.008 0.0469 0 0.10938-0.008 0.14844-0.004-0.043-0.004-0.082 0-0.12891-0.004"/>
  </g>
  <g fill="#211e1e">
   <path d="m56.914 138.16c0.13672-0.0312 0.27344-0.0586 0.41016-0.0898-0.13672 0.0312-0.27344 0.0586-0.41016 0.0898"/>
   <path d="m55.348 138.55c0.14062-0.0391 0.29297-0.082 0.44531-0.1211-0.15234 0.0391-0.30469 0.082-0.44531 0.1211"/>
   <path d="m56.113 138.35c0.14062-0.0352 0.28125-0.0664 0.42188-0.10156-0.14062 0.0352-0.28125 0.0664-0.42188 0.10156"/>
   <path d="m54.469 138.82c0.19531-0.0664 0.41016-0.13281 0.63281-0.19922-0.22266 0.0664-0.4375 0.13281-0.63281 0.19922"/>
   <path d="m57.754 137.99c0.125-0.0234 0.25-0.0508 0.37891-0.0742-0.12891 0.0234-0.25391 0.0508-0.37891 0.0742"/>
   <path d="m61.117 137.45c0.04297-0.004 0.08203-0.0117 0.125-0.0156-0.04297 0.004-0.08203 0.0117-0.125 0.0156"/>
   <path d="m62.977 137.24c0.03125-0.004 0.05859-0.008 0.08594-0.008-0.02734 0-0.05469 0.004-0.08594 0.008"/>
   <path d="m58.633 137.82c0.05859-0.0117 0.125-0.0234 0.1875-0.0352-0.0625 0.0117-0.12891 0.0234-0.1875 0.0352"/>
   <path d="m62.02 137.34c0.05078-0.004 0.09766-0.0117 0.14844-0.0156-0.05078 0.004-0.09766 0.0117-0.14844 0.0156"/>
   <path d="m74.395 134.96c-0.01172 0.008-0.02734 0.0234-0.04297 0.0312 0.01563-0.008 0.03125-0.0234 0.04297-0.0312"/>
  </g>
  <path d="m72.676 136.96c0.01563-0.0117 0.02734-0.0273 0.04687-0.043-0.01953 0.0156-0.03125 0.0312-0.04687 0.043" fill="#fff"/>
  <path d="m163.96 81.227c2.6602 4.1992 6.0078 7.7305 11.211 9.3984-6.4023 2.9141-12.391-1.4297-11.211-9.3984zm75.969 47.945c-0.69532 0.0977-1.9648-1.4883-2.8281-2.0391-0.73047 0.21875-1.1641 1.3281-1.7031 1.3594-3.1016-2.2812-7.3516-5.2617-12.57-4.6445-1.1523 0.13672-3.0273 1.6133-4.1875 2.3789-1.2148 0.79688-2.3711 1.6445-3.5117 2.3789 5.6992 0.53906 9.3789 2.8633 11.098 7.8125 0.45313 1.3008 1.3906 3.793 1.0195 5.2109-0.17968 0.67187-1.7422 1.5976-2.4922 2.2617-1.0234 0.91797-1.7305 1.668-2.375 2.2695-1.875 1.7266-3.1055 3.5781-4.6484 4.7539-3.1094 2.375-7.4648-0.10937-10.191-1.8125-4.293-2.6758-7.0469-6.168-12.461-7.4726-8.8398-2.1367-19.879-1.4805-27.008 2.3398-3.043 3.5469-5.1172 8.7734-6.2422 14.703-0.33593 1.7852-1.0625 4.9883-0.85156 6.8203 0.043 0.41797 0.21875 0.84765 0.45313 1.2734 1.375 2.3008 4.3555 4.0586 6.8125 5.5547 5.2852 3.2148 11.184 5.9375 17.664 7.9258 3.9453 1.2109 8.6055 2.2695 13.25 1.5859 0.46484 1.3008 2.2852 3.6094 1.1328 5.4375-0.39844 0.63672-3.043 1.625-3.7305 2.1523-2.125 1.6016-3.668 4.0312-5.2148 6.5664-1.0703 1.7539-2.8359 4.6211-5.207 2.3789-0.65625-0.6211-1.043-1.8945-1.1328-2.7188-0.51172-4.6836 1.9336-9.6406 3.0586-13.137-1.5664 0.59765-3.7578 1.2305-6.1172 1.8125-1.625 0.39844-5.5078 1.4648-6.457 0-1.3906-2.1445 1.5586-4.4258 2.1562-5.7774-2.2852 0.4336-5.75 1.3984-8.5 1.3594-0.78125-0.0117-2.0312-0.16016-2.375-0.67578-1.1992-1.8008 1.1758-4.0898 1.5859-5.4414-1.8203 0.6211-4.1602 1.8398-6.6797 1.8164-4.5586-0.0469-1.9883-4.2891-0.12891-6.2344-0.73437 0.12891-1.4922 0.23047-2.2422 0.32422-0.91797 0.27735-1.8867 0.4961-2.8398 0.47266-1.0039-0.0273-1.9844-0.40625-2.1523-1.1328-0.24219-1.0586 0.88281-2.2109 1.4688-3.1719 0.33984-0.55078 0.67969-1.1367 1.0156-1.7305 1.6055-8.1602-2.0664-19.062 9.0156-23.098 2.4023-0.9375 5.8086-1.3555 7.6367-1.6328 5.2969-1.3711 11.426-1.957 17.781-1.1719-0.19922-0.0664-0.41406-0.13281-0.63281-0.19922-0.0781-0.0234-0.16407-0.0469-0.2461-0.0703-0.14844-0.0391-0.29297-0.082-0.44922-0.1211-0.10156-0.0273-0.21484-0.0547-0.32422-0.082-0.13671-0.0352-0.27343-0.0664-0.41796-0.10156-0.125-0.0273-0.25-0.0586-0.37891-0.0859-0.13281-0.0312-0.26953-0.0586-0.41016-0.0859-0.14062-0.0312-0.28125-0.0586-0.42578-0.0898-0.125-0.0234-0.2539-0.0469-0.38281-0.0703-0.16406-0.0312-0.32813-0.0625-0.49609-0.0937-0.0625-0.0117-0.12891-0.0195-0.19141-0.0312-0.73438-0.125-1.5078-0.24219-2.2969-0.34375-0.043-0.004-0.0859-0.0117-0.125-0.0156-0.25781-0.0312-0.51562-0.0625-0.77734-0.0937-0.0469-0.004-0.10156-0.008-0.14844-0.0156-0.26953-0.0273-0.53906-0.0547-0.80859-0.082-0.0312-0.004-0.0586-0.004-0.0859-0.008-1.5-0.14453-3.0312-0.23046-4.5-0.25-4.4414 0.0625-9.1641 1-13.383 2.6367 1.957-2.1836 4.332-3.7266 6.5938-4.6172-0.0156-0.008-0.0273-0.0234-0.043-0.0312-2.5703-0.11329-6.2266 1.1055-12.379 4.8828 0.14063-0.48828-0.27734-2.6406 6.6406-5.5469 1.7656-1.0976 5.8047-1.6094 8-2.1641 0-0.004 0.004-0.008 0.004-0.008-4.8555-0.86719-10.711 0.30859-13.855 2.1992 1.3359-3.3789 4.6719-5.625 8.4141-6.7891-2.5352-0.70313-6.0078-1.1289-8.8008-0.69141-0.29688-0.1875 0.49609-0.66016 0.82812-0.87109 2.4141-1.5547 6.2148-3.0742 10.117-3.1602-0.33594-0.17578-0.67187-0.35547-1.0078-0.53516-3.4922-2.0156-5.4844-4.3828-5.4922-5.5976 2.0859 1.582 5.918 4.5 15.797 6.6172-0.4336-4.2891 3.2734-5.4102 7.0195-5.8867-5.5781-1.25-11.527-2.1367-17.211-3.2852-1.3438-0.28906-5.5938-1.3828-5.5664-2.125 10.957 1.3164 29.371 0.98828 35.801-4.2188-9.0039 2.1484-21.172 3.2305-25.672 1.5664 6.0703-1.8398 18.758-2.9375 24.66-9.2695-7.9922 2.6836-11.742 2.5195-18.492 3.0195 5-1.668 12.238-5.6016 15.203-9.5859-5.6523 2.0508-11.367 4.0391-18.688 4.418 3.6524-1.75 7.4844-3.3164 10.195-6.0039-3.0859 0.3125-6.2422 0.55469-9.4024 0.79297 0.72656-1.3164 1.6055-2.4766 2.3789-3.7344-6.8203-2.8438-13.668-5.8047-16.668-16.43 2.2383 2.2969 4.6562 3.543 6.1055 2.8438 0.0117 0 0.0234-0.0039 0.0312-0.0078-1.3516-6.3945-1.0859-15.957 4.5312-17.777-2.8555-2.6836-7.293-3.1836-10.605-3.1836 3.375-2.125 11.379-0.21875 14.566 0.91797-1.3984-2.5273-5.1524-5.7812-7.9414-6.918 4.5625-0.25781 10.617 2.0547 13.266 4.0859-1.0234-1.7461-2.1328-3.8359-3.5117-5.4375-0.41407-0.48047-3.1289-4.0234-4.7539-5.7734 3.3164 1.4375 9.75 4.75 12.227 10.078 0.6836-0.22266 1.6836-0.13281 2.3828-0.33984-2.8594-10.988-11.852-16.434-13.234-19.238 2.3242 1.9531 12.875 6 16.293 16.633 0.41797 1.0039 0.76172 2.0781 1.3555 2.9453 1.1953 1.7461 3.7226 2.0898 6.5703 2.0391 0.54297 1.2578 1.1289 2.5859 1.793 3.8828 0.0742 0.14453 0.15625 0.29297 0.23047 0.4375 0.125 0.23047 0.25 0.46094 0.3789 0.69141 0.0273 0.05078 0.0547 0.10156 0.0859 0.15234 0.55859 0.96875 1.1719 1.9023 1.8633 2.7461 0 0.0039 0.004 0.0078 0.004 0.01172 0.75 0.91797 1.5898 1.7344 2.5508 2.3828 1.5039 4.3125 3.3828 6.8164 6.7383 9.2812 0.13672 4.5938 0.46094 11.086 2.3203 14.277 0.98828 1.6875 2.3867 3.2383 3.5156 4.8672 5.6172 8.1289 10.766 16.605 15.742 25.594 1.9453 3.5274 4.4726 7.3984 4.3008 12.008zm-37.488 28.426c1.5391-1.9024 2.8906-3.9844 3.9648-6.3438 1.7266 1.0312 3.3828 2.1289 5.6641 2.6055-2.4688 1.9844-5.8984 3.0078-9.6289 3.7383zm-16.082 17.555c-2.918-0.80468-5.2148-2.2773-7.2461-4.3047-1.9844-1.9844-4.6602-5.1602-4.1875-9.3984 0.0898-0.82031 0.73047-1.9727 0.5625-3.0586-0.22266-1.457-2.1875-2.4219-3.2852-3.5117-1.1797-1.1836-3.1797-3.7344-1.582-5.7774 2.2422-2.8789 8.4531-0.14062 9.625 2.0391 1.6602 3.0938 0.66407 8.8242 1.2461 13.93 0.55468 4.875 2.6562 7.8242 4.8672 10.082zm13.59-7.25c1.375 2.7539 1.5586 8.1445 0.23047 11.098-1.7891 0.48047-4.0781 0.91016-6 0.33984 2.6328-3.0976 4.5352-6.9375 5.7695-11.438zm-19.043 34.5c-7.4609 3.5352-16.387 9.0469-25.105 11.695-0.50391 0.15625-1.1016 0.39062-1.6914 0.30078-0.66406-2.2031 0.53125-6.2266 1.9414-7.3828 7.0039-0.33984 13.504-1.793 19.418-3.2266 1.5-0.36328 4.25-1.3867 5.4375-1.3867l0.0195-0.008c0.043 0.004 0.0859 0 0.125 0.004-0.0391-0.004-0.10156 0.004-0.14453 0.004zm-38.465 8.9961c-0.4336-1.4414-0.0703-3.6602 0.6289-5.3516-1.8672 0.78125-3.7383 1.4844-5.6016 2.0508-0.50391 0.15625-1.1016 0.39062-1.6953 0.30078-0.66407-2.2031 0.53515-6.2266 1.9453-7.3828 7-0.33984 13.504-1.793 19.418-3.2266 1.5-0.36328 4.4726-1.4531 5.6602-1.4531 0.008-0.004-0.17968 0.0664-0.22656 0.0664-4.3867 2.082-9.2891 4.8438-14.352 7.3047 5.5508-0.58203 10.762-1.75 15.586-2.918 1.5-0.36328 4.25-1.3867 5.4336-1.3867l0.0195-0.008c0.043 0.004 0.0859 0 0.12891 0.004-0.043-0.004-0.10156 0.004-0.14844 0.004-7.457 3.5352-16.383 9.0469-25.102 11.695-0.50391 0.15625-1.1016 0.39062-1.6953 0.30078zm-33.246-3c-0.58984 0.0898-1.1875-0.14453-1.6914-0.30078-1.8633-0.56641-3.7383-1.2695-5.6055-2.0508 0.69922 1.6914 1.0664 3.9102 0.6289 5.3516-0.58984 0.0898-1.1875-0.14453-1.6875-0.30078-8.7227-2.6484-17.648-8.1602-25.105-11.695-0.04687 0-0.10547-0.008-0.14844-0.004 0.04297-0.004 0.08594 0 0.12891-0.004 0.0078 0.004 0.01172 0.004 0.01953 0.008 1.1875 0 3.9336 1.0234 5.4375 1.3867 4.8164 1.168 10.031 2.3398 15.582 2.918-5.0664-2.4609-9.9648-5.2227-14.355-7.3047-0.04297 0-0.10547-0.008-0.14453-0.004 0.04297-0.004 0.08594 0 0.12891-0.004 0.0039 0.004 0.01172 0.004 0.01563 0.008 1.1875 0 3.9375 1.0234 5.4375 1.3867 5.918 1.4336 12.418 2.8867 19.418 3.2266 1.4102 1.1562 2.6055 5.1797 1.9414 7.3828zm-18.332 6c-0.59375 0.0898-1.1875-0.14453-1.6914-0.30078-8.7188-2.6484-17.648-8.1602-25.105-11.695-0.04687 0-0.10547-0.008-0.14453-0.004 0.04297-0.004 0.08203 0 0.12891-0.004 0.0039 0.004 0.01172 0.004 0.01563 0.008 1.1875 0 3.9375 1.0234 5.4375 1.3867 5.9141 1.4336 12.418 2.8867 19.418 3.2266 1.4102 1.1562 2.6055 5.1797 1.9414 7.3828zm-38.643-134.22c0.23438-1.8672 1.25-3.6914 3.2812-2.6055 0.55078 3.7578 0.43359 8.8789-3.7344 8.3789-3.6719-0.43359-5.375-4.6875-6.3398-8.0391 0.35938-0.39063 1.0312-0.47656 1.6914-0.56641 1.0859 2.957 2.2773 5.8047 4.7617 7.3594 0.82812-1.0352 0.14453-2.9844 0.33984-4.5273zm8.422 104.24c-0.28516 0.77734-0.40234 1.7773-0.22656 2.7188-2.2344-0.41016-4.2305-1.0547-5.5508-2.3789 0.10156 2.582 0.4375 4.9219 0.91016 7.1367-0.35547 0.10156-0.57422-0.43359-0.79688-0.68359-1.9883-2.1953-4.3828-4.8281-6.0039-7.4727 0.41016 4.6875 1.1953 9 2.8359 12.457-0.07422 0.35157-0.37891-0.26953-0.45313-0.33984-3.3438-3.1875-4.9844-8.8867-4.875-15.516 1.8516 1.1211 5.1875 1.1367 7.4766 0.33985l2.0391-0.90625c0.52734-0.0898 1 0.11719 1.4727 0.11328 2.8047-0.0156 5.1523-1.4453 6.2305-3.5078 6.5586 0.99609 10.969-1.8789 13.363-5.7774 2.1562-0.42968 3.7812-1.3516 5.3242-2.7188 1.207-1.0703 2.957-2.9648 3.1719-4.7578 0.21875-1.8555-0.78516-5.0664-0.91016-6.9062-0.53906-7.9727-3.8008-9.7188-7.207-13.309-17.5-4.5-31.25 0.16797-41.602 6.625-0.59766 0.37109-1.3906 0.96484-1.6992 1.0195-1.5352 0.26953-3.4219-0.8086-4.8672-0.56641-2.2578-4.6914-5.3906-8.5-8.832-12.004 0.66016-0.12891 1.0781-0.50391 1.8047-0.56641 1.6367-5.0117 5.2031-8.0859 11.211-8.7188-0.60547-4.0781 0.09766-8.4141 1.4766-11.215-1.5 0.84375-3.0391 2.625-4.5352 3.8516-9.1484 0.62891-19.262 3.5039-24.621 7.9297-2.4883-2.5938-1.8789-8.582 0.67969-10.648 6.0977-13.785 18.426-25.824 27.57-37.145 0.58594-0.73047 1.6172-1.9375 1.6953-2.3789 0.14453-0.75391-0.25781-1.9219-0.33594-2.832-0.89062-10.332 3.9805-17.316 10.758-21.289-0.15625-2.4531-0.28516-4.9258-0.56641-7.25 1.3125-2.3555 2.168-3.6133 2.8828-4.3594 4.0938-6.082 13.18-12.855 20.023-14.367-5.75 4.25-11.793 9.957-12.395 13.152 4.0859-2.6953 8.9492-6.4336 13.352-5.3203-3.543 1.3281-8.0508 5.5586-11.188 10.199 0.32812 0.84766 0.59375 1.7617 0.80078 2.7344 2.8945-3.1094 14.305-10.934 14.113-10.184-2.6367 2.3125-8.8164 7.5898-9.9258 11.43 0.50781 0.58594 1.5 0.69141 2.1562 1.1328 2.7227-1.8789 8.0195-4.5625 11.27-5-5.1836 3.5-4.9844 4.6406-6.8555 6.9258 0.38672 0.66797 0.91797 1.1992 1.5859 1.582 4.4727-2.457 8.207 0.23438 8.2695 4.9844 0.0625 4.7109-4.25 7.1094-9.0625 7.25 0.17969 1.6836 0.87109 2.8594 1.6445 3.9531 0.04297-0.0039 0.08203 0 0.12109-0.0039 0.51953 0.76172 1.3633 2.0391 1.7031 2.5664-2.0508 1.0547-4.0273 2.0352-6.9062 2.0391-4.9492 0.01172-8.2422-2.7578-12.57-4.5273-4.1641-1.707-9.1836-1.8828-14.156-0.11328-1.3359 1.707-2.168 5.4727-1.1328 8.1523-0.58984 1.0586-1.6406 1.4297-2.3789 2.3789-1.7305 2.2109-1.957 5.6562-3.8516 7.8125-0.63672 0.73047-1.3398 1.1367-2.0391 1.9258 7.6602-0.15625 12.324-3.3047 16.078-7.3633 5.0078 4.375 11.73-0.76953 14.047-4.3008 4.1875 3.6523 13.059 2.5078 16.988-0.67969-0.34375 0.36719-0.71875 0.72266-1.1172 1.0625 1.1875-0.82031 2.25-1.6797 3.1016-2.6797-3.5117 6.0586-8.875 8.3906-14.23 10.633 0.77734 1.2656 1.6562 2.4297 2.3789 3.7539-3.1602-0.23828-6.3125-0.48438-9.3984-0.79688 2.7109 2.6992 6.543 4.2734 10.191 6.0312-7.3203-0.37891-13.035-2.3789-18.688-4.4375 2.9688 4 10.207 7.9531 15.207 9.6289-6.75-0.5-10.5-0.33594-18.492-3.0273 5.9023 6.3594 18.59 7.4609 24.66 9.3086-4.5 1.6758-16.668 0.58594-25.676-1.5742 6.4297 5.2344 24.844 5.5625 35.805 4.2383 0.02344 0.75-4.2266 1.8477-5.5703 2.1367-5.6797 1.1562-11.629 2.043-17.211 3.3008 3.75 0.48047 7.457 1.6055 7.0195 5.918 9.8828-2.1289 13.715-5.0586 15.797-6.6523-0.0078 1.2226-2 3.6016-5.4883 5.6289-0.33594 0.17969-0.67188 0.35938-1.0078 0.53516 3.8984 0.0859 7.6992 1.6133 10.113 3.1719 0.33594 0.21484 1.125 0.6875 0.82422 0.8789-2.7891-0.4414-6.2617-0.0117-8.7969 0.69531 3.7422 1.168 7.082 3.4258 8.418 6.8203-3.1484-1.9024-9.0039-3.082-13.859-2.2109 0.0039 0.004 0.0039 0.008 0.0039 0.008 2.1953 0.55859 6.2305 1.0742 8 2.1758 6.918 2.9219 6.5 5.082 6.6406 5.5742-6.1523-3.7969-9.8086-5.0234-12.379-4.9062-0.01172 0.008-0.02734 0.0234-0.04297 0.0312 2.2617 0.89453 4.6367 2.4453 6.5938 4.6367-4.2148-1.6406-8.9414-2.582-13.383-2.6484-1.4648 0.0195-2.9961 0.10938-4.5 0.25391-0.02734 0-0.05469 0.004-0.08594 0.008-0.26953 0.0234-0.53906 0.0508-0.80859 0.082-0.05078 0.004-0.09766 0.0117-0.14844 0.0156-0.25781 0.0312-0.51953 0.0625-0.77734 0.0937-0.04297 0.004-0.08203 0.0117-0.125 0.0156-0.79297 0.10156-1.5586 0.21875-2.2969 0.34375-0.0625 0.0117-0.12891 0.0234-0.1875 0.0352-0.17187 0.0273-0.33594 0.0586-0.5 0.0898-0.12891 0.0234-0.25391 0.0508-0.37891 0.0742-0.14844 0.0273-0.28906 0.0586-0.42969 0.0859-0.13672 0.0312-0.27344 0.0586-0.41016 0.0898-0.12891 0.0273-0.25391 0.0586-0.37891 0.0859-0.14062 0.0352-0.28125 0.0664-0.42188 0.10156-0.10547 0.0273-0.21875 0.0547-0.32031 0.082-0.15234 0.0391-0.30469 0.082-0.44531 0.1211-0.08203 0.0234-0.16797 0.0469-0.24609 0.0703-0.22266 0.0664-0.4375 0.13281-0.63281 0.19922 6.3516-0.78516 12.48-0.19531 17.777 1.1797 1.8242 0.28125 5.2344 0.69921 7.6406 1.6406 4.3438 1.5898 6.4102 4.2461 7.4258 7.375 0.41406 0.27734 0.81641 0.55859 1.2031 0.85938 0.62891 5.5156 0.51953 11.645 2.8086 15.648-1.3594 0.29688-0.44141 0.8711-1.9609 1.0156 1.4219 0.88672 0.94531 1.6641 2.4141 2.4922-3.1406 1.3086-6.6016 2.3008-10.301 3.0586 0.42188 1.0859 1.9766 2.0234 3.0547 2.8281-3.7578 1.6016-7.3008 3.4258-12.23 3.8516 0.39062 0.82031 1.6758 1.7226 2.7188 2.2656-2.0938 0.53906-5.1406 1.3164-7.4727 0.56641-0.25781 1.2969-0.31641 2.7852-0.57031 4.0781-2.5859 0.0625-5.082 0.0273-6.3398-1.2461zm-11.895-18.8c1.4336 4.5742 3.2539 8.7539 5.7773 12.23-1.4844 0.80078-4.0938 1.4414-6.1172 0.67968-1.629-3.57-1.074-9.55 0.34-12.91zm15.75-0.64063c1.0625-5.0312 0.60937-10.832 2.5547-13.75 1.375-2.0625 7.8164-4.1992 9.7734-1.1211 1.3984 2.1836-0.83203 4.5352-2.1211 5.5977-1.1875 0.98437-3.2383 1.7578-3.6016 3.1875-0.26953 1.0625 0.26172 2.2734 0.27344 3.0976 0.06641 4.2617-2.8945 7.1719-5.0586 8.9609-2.2109 1.8281-4.6406 3.0781-7.6211 3.6016 2.4141-2.043 4.7891-4.7773 5.8008-9.5742zm-22.203-8.3047c-3.2539-0.48438-5.9336-1.543-7.5898-3.625 1.5273-0.82032 2.7383-1.9453 4.4219-2.6055 0.66016 2.3945 2.2031 4.5156 3.168 6.2305zm28.234-65.708c5.207-1.6797 8.5469-5.2227 11.211-9.4453 1.1797 8.0117-4.8047 12.371-11.211 9.4453zm172.09 32.628c-1.2031-3.6289-2.5938-7.0273-4.4961-10.418-4.6914-8.375-9.625-16.309-14.836-23.895-1.0117-1.4766-2.4883-3.0898-3.2852-4.5312-0.78125-1.4219-1.0664-3.4414-1.2461-5.3242-0.19141-2.0391 0.0547-4.332-0.33984-6.3398-0.46485-2.3945-2.4453-4.0391-3.8477-5.8906-2.4492-3.2344-4.8398-6.8125-7.0742-10.25-0.38672-1.3398 0.0937-5.9336 0.0742-7.1445-0.0703-3.832-1.7969-7.207-3.2852-8.9258-1.2812-1.4766-7.1602-8.6641-13.34-11.055-7.5859-4.1406-20.168-9.832-42.078-12.668-7.8242-1.7031-16.668-2.8086-26.254-2.6406-6.0078-0.07812-11.707 0.35156-17.059 1.1016-24.907 2.571-37.899 8.907-46.122 12.989-4.48 2.051-13.23 8.637-14.637 11.074-1.4961 2.5898-3.2188 5.043-3.2852 8.832-0.01953 1.2148 0.41016 2.5391 0.22656 3.8516-0.10938 0.76953-1.4688 1.5195-2.1523 2.1523-5.675 5.238-9.195 13.027-8.265 23.668-7.84 10.156-19.336 20.453-25.645 32.393-1.91 3.62-4.6912 8.71-5.66 12.79v2.61c0.80078 6.9531 7.5664 9.2695 12.348 13.25 3.5234 2.9414 9.6133 6.2305 11.934 10.305 0.69531 1.2148 1.6211 3.5781 2.3789 4.0781 1.5391 1.0117 4.5938 0.33594 6.3438 0.67969 1.0352 0.20312 1.3984 1.1602 2.6055 1.9258 0.95312 0.60938 2.2422 1.1602 3.168 1.4727 0.89062 0.30078 7.0938 2.0547 7.4766 0.45312 0.22656-0.94922-0.63281-0.92969-1.3594-1.4726-2.2383-1.668-3.0352-4.8633-4.3008-7.0234 2.8945-1.9024 7.4414-3.7305 11.32-4.9805 1.3828-0.44531 3.0898-1.3008 4.1914-1.2461 1.5859 0.0781 3.4922 2.0547 4.3047 2.9453-1.8164 4.4023-2.5 11.551-1.3594 17.211-0.30859 0.65234-1.0312 1.0586-1.5859 1.5859-0.59766 0.57032-1.168 1.1758-1.6953 1.8125-1.1094 1.332-1.6562 2.9922-2.832 4.1914-0.85547-1.2266-1.3359-2.7266-1.9258-4.5312-0.35547-1.0859-0.76953-4.6016-1.8164-4.7539-0.93359-0.14062-1.4727 1.3398-1.8086 2.1484-1.2109 2.9219-2.0352 6.5039-1.6992 10.195-3.4219-0.61718-3.9922 2.3828-4.3008 4.9844-0.71094 5.8945-0.39844 12.547 1.9219 16.191 1.5312 2.4102 4.1953 4.4844 7.0117 5.9062 1.0898 0.54688 8.168 1.7734 11.863 4.0859 16.844 10.527 35.609 15.219 53.422 16.328v0.10937c26.867 1.3477 51.34-5.3906 63.418-12.484 5.4258-3.1875 12.184-6.3477 13.707-7.8711 1.9375-1.9336 3.8359-4.7344 5.418-6.7461 2.0352-2.5781 6.3359-4.4648 5.8789-9.1797-0.21093-2.1523-1.4141-4.0117-2.2656-5.8906 1.8945-3.1094 1.082-9.1406-0.11328-12.457-0.375-1.0547-0.82032-3.1172-1.9219-3.0586-1.0859 0.0586-1.7969 4.0547-2.1562 5.0977-0.71875 2.125-1.3047 3.5547-2.1445 5.2109-6.6797-4.8516-10.68-12.945-10.195-24.578 2.4648-1.1094 6.1211-1.8125 9.9648-1.8125 3.6953 0 7.6875 0.16016 9.625 2.1523-1.125 2.6719-2.5234 5.0195-4.6406 6.9102-0.64453 0.57422-2.0508 1.168-1.7031 2.0352 0.40625 0.99218 2.5703 0.41406 3.7422 0.23047 4.2148-0.66797 7.6758-1.7656 10.305-3.625 6.6016 1.375 8.9062-3.2734 12.004-6.1172 2.8516-2.6172 5.8867-5.0469 8.3789-7.1367 2.8086-2.3438 5.9023-4.7227 8.2695-7.2461 2.8477-3.0352 2.9766-7.0352 1.4375-11.664" fill-opacity=".94118" fill="#766a6f"/>
  <g>
   <path d="m169.23 74.816c0.0117-0.0039 0.0195-0.0039 0.0312-0.0078-0.008 0.0039-0.0195 0.0078-0.0312 0.0078" fill="#00abee"/>
   <path d="m154.14 223.92c0 1.7852-1.082 2.3672-2.9961 3.2344-1.918 0.87109-12.449 4.0469-28.121 4.0469s-28.082-3.6484-29.437-4.0469c-1.3633-0.39453-3-1.4492-3-3.2344v-211.24c0-1.7852 1.1172-2.4492 3-3.2344 1.8828-0.78906 14.395-4.0469 28.805-4.0469 14.414 0 27.16 3.4727 28.754 4.0469 1.5976 0.57422 2.9961 1.4492 2.9961 3.2344v211.24" fill-rule="evenodd" fill="#211e1e"/>
   <path d="m157.59 227.48c0 1.8476-1.207 2.4492-3.3438 3.3438-2.14 0.9-13.68 4.18-31.14 4.18-17.473 0-31.098-3.7695-32.617-4.1758-1.5156-0.41016-3.3438-1.4961-3.3438-3.3438v-218.36c0-1.8477 1.2461-2.5312 3.3438-3.3438 2.1016-0.8125 15.844-4.1758 31.906-4.1758 16.07 0 30.074 3.582 31.852 4.1758 1.7812 0.59375 3.3438 1.4961 3.3438 3.3438v218.36" fill-rule="evenodd" fill="#fff"/>
  </g>
  <path d="m90.852 6.7109c-1.0273 0.39062-1.7695 0.75-2.1641 1.1016-0.375 0.35938-0.52344 0.60547-0.54297 1.3086v218.36c0.0039 0.57422 0.25781 1.0156 0.75391 1.4492 0.48828 0.42578 1.207 0.75781 1.8516 0.92578 1.4883 0.40234 15.02 4.1445 32.355 4.1445 17.316 0.0117 28.836-3.2852 30.754-4.0977 1.0586-0.4414 1.8203-0.80859 2.2031-1.1523 0.37109-0.35156 0.5-0.55859 0.52734-1.2695v-218.36c-0.02-0.6317-0.21-0.9794-0.66-1.3856-0.45-0.3906-1.17-0.7344-2-1.0078-1.625-0.55078-15.637-4.1367-31.535-4.125h-0.10156c-15.848 0-29.586 3.375-31.441 4.1094zm-0.622 225.08c-0.875-0.23828-1.832-0.65625-2.6328-1.3398-0.79688-0.67188-1.457-1.6992-1.4531-2.9688v-218.36c-0.019-1.1434 0.461-2.1669 1.227-2.8114 0.758-0.6563 1.684-1.043 2.758-1.4648 2.336-0.8907 16.031-4.2305 32.261-4.2422 16.234 0.007813 30.234 3.5898 32.168 4.2266 0.94922 0.32031 1.8945 0.72656 2.6758 1.3945 0.78125 0.65625 1.3672 1.6836 1.3516 2.8984v218.36c0.0234 1.1367-0.44922 2.1523-1.2188 2.7812-0.75 0.64453-1.6641 1.0273-2.7383 1.4844-2.3594 0.97657-13.91 4.2422-31.527 4.2539-17.613 0-31.332-3.7969-32.875-4.2109" fill-opacity=".94118" fill="#766a6f"/>
  <path d="m123.03 229.77c-14.25 0-25.805-3.0469-29.008-3.9844-0.23047-0.0664-1.9922-0.61328-1.9922-1.8594v-211.24c0-0.76172 0.17188-1.0977 2.1172-1.9102 1.9141-0.80078 14.332-3.9375 28.25-3.9375 14.098 0 26.559 3.3477 28.266 3.9609 1.8008 0.64844 2.0508 1.2891 2.0508 1.8867v211.24c0 0.78125-0.1875 1.0312-2.1562 1.9219-1.7148 0.77734-12.004 3.9219-27.527 3.9219" fill-opacity=".94118" fill-rule="evenodd" fill="#766a6f"/>
  <g fill="#fff">
   <g>
    <path d="m106.86 77.809v-56.535h11.406v47.191h20.188v9.3438h-31.594"/>
    <path d="m138.05 83.82v9.3438h-20.191v13.305h19v9.3398h-19v15.203h20.984v9.3438h-32.387v-56.535h31.594"/>
    <path d="m122.65 195.77c6.7344 0 7.8398-5.7852 7.8398-20.984 0-15.125-1.1055-20.984-7.8398-20.984-6.7266 0-7.8398 5.8594-7.8398 20.984 0 15.199 1.1133 20.984 7.8398 20.984zm0-50.363c17.105 0 19.242 12.195 19.242 29.379 0 17.18-2.1367 29.375-19.242 29.375-17.102 0-19.242-12.195-19.242-29.375 0-17.184 2.1406-29.379 19.242-29.379"/>
   </g>
   <path d="m118.9 214.56c-0.33985 3.332 3.1523 4.8984 5.4023 3.7891 3.5078-1.7344 2.0938-7.7188-2.3164-7.0156-1.7539 0.27734-2.9141 1.5508-3.0859 3.2266zm3.5781-4.2812c2.918-0.125 6.0625 2.7852 4.5586 6.5273-0.82813 2.0703-2.9844 3.1562-5.1914 2.875-3.0039-0.38281-4.9492-4.0742-3.4414-6.9453 0.64454-1.2148 2.0742-2.3711 4.0742-2.457" fill-rule="evenodd"/>
  </g>
  <path d="m124.16 212.53c-0.77735-0.79687-2.2891-0.61718-3.2266-0.14062v5.1914h1.0508c0.082-0.71093-0.17188-1.7617 0.14062-2.2422 1.1211 0.16015 1.1406 1.4297 1.6133 2.2422h1.1953c-0.38281-0.88281-0.80468-1.7226-1.2656-2.5234 1.0312-0.35938 1.1484-1.8555 0.49219-2.5274zm-2.1758-1.1914c4.4102-0.70313 5.8242 5.2812 2.3164 7.0156-2.25 1.1094-5.7422-0.45703-5.4023-3.7891 0.17187-1.6758 1.332-2.9492 3.0859-3.2266" fill-opacity=".94118" fill-rule="evenodd" fill="#766a6f"/>
  <path d="m123.18 213.02c-0.3125-0.0625-0.90235-0.14844-1.1953 0v1.4023c0.55078 0.0117 1.1055 0.0273 1.4062-0.21093 0.23437-0.42578 0.11328-0.95703-0.21094-1.1914zm0.48828 2.0352c0.46094 0.80078 0.88281 1.6406 1.2656 2.5234h-1.1953c-0.47265-0.8125-0.49219-2.082-1.6133-2.2422-0.3125 0.48047-0.0586 1.5312-0.14062 2.2422h-1.0508v-5.1914c0.9375-0.47656 2.4492-0.65625 3.2266 0.14062 0.65625 0.67188 0.53906 2.168-0.49219 2.5274" fill-rule="evenodd" fill="#fff"/>
 </g>
</svg>
